<mxfile host="app.diagrams.net" modified="2022-06-30T07:29:33.732Z" agent="5.0 (Windows NT 10.0; Win64; x64) AppleWebKit/537.36 (KHTML, like Gecko) Chrome/103.0.0.0 Safari/537.36" etag="K8KWhsTuTEDy7iwKB7Rc" version="20.0.4" type="github">
  <diagram id="ZNJSjfJfP-2EhZ-H36AC" name="Page-1">
    <mxGraphModel dx="1051" dy="650" grid="1" gridSize="10" guides="1" tooltips="1" connect="1" arrows="1" fold="1" page="1" pageScale="1" pageWidth="827" pageHeight="1169" math="0" shadow="0">
      <root>
        <mxCell id="0" />
        <mxCell id="1" parent="0" />
        <mxCell id="trQrFOLZtT0C0__hCQXX-1" value="int Boyer_Moore(string str, string pat)" style="swimlane;" vertex="1" parent="1">
          <mxGeometry x="20" y="10" width="500" height="1560" as="geometry" />
        </mxCell>
        <mxCell id="trQrFOLZtT0C0__hCQXX-4" style="edgeStyle=orthogonalEdgeStyle;rounded=0;orthogonalLoop=1;jettySize=auto;html=1;" edge="1" parent="trQrFOLZtT0C0__hCQXX-1" source="trQrFOLZtT0C0__hCQXX-2" target="trQrFOLZtT0C0__hCQXX-3">
          <mxGeometry relative="1" as="geometry" />
        </mxCell>
        <mxCell id="trQrFOLZtT0C0__hCQXX-2" value="int m = (int)pat.size();&lt;br&gt;	int j = 0;&lt;br&gt;	int pi[26] = { 0, };&lt;br&gt;int count = 0;" style="rounded=1;whiteSpace=wrap;html=1;absoluteArcSize=1;arcSize=14;strokeWidth=2;" vertex="1" parent="trQrFOLZtT0C0__hCQXX-1">
          <mxGeometry x="40" y="50" width="180" height="70" as="geometry" />
        </mxCell>
        <mxCell id="trQrFOLZtT0C0__hCQXX-6" style="edgeStyle=orthogonalEdgeStyle;rounded=0;orthogonalLoop=1;jettySize=auto;html=1;entryX=0.5;entryY=0;entryDx=0;entryDy=0;entryPerimeter=0;" edge="1" parent="trQrFOLZtT0C0__hCQXX-1" source="trQrFOLZtT0C0__hCQXX-3" target="trQrFOLZtT0C0__hCQXX-5">
          <mxGeometry relative="1" as="geometry" />
        </mxCell>
        <mxCell id="trQrFOLZtT0C0__hCQXX-3" value="int i = 0; i++" style="strokeWidth=2;html=1;shape=mxgraph.flowchart.loop_limit;whiteSpace=wrap;" vertex="1" parent="trQrFOLZtT0C0__hCQXX-1">
          <mxGeometry x="65" y="150" width="130" height="40" as="geometry" />
        </mxCell>
        <mxCell id="trQrFOLZtT0C0__hCQXX-5" value="i == m - 1" style="strokeWidth=2;html=1;shape=mxgraph.flowchart.decision;whiteSpace=wrap;" vertex="1" parent="trQrFOLZtT0C0__hCQXX-1">
          <mxGeometry x="80" y="220" width="100" height="60" as="geometry" />
        </mxCell>
        <mxCell id="trQrFOLZtT0C0__hCQXX-8" value="pi[pat[i] - &#39;A&#39;] = m;" style="rounded=1;whiteSpace=wrap;html=1;absoluteArcSize=1;arcSize=14;strokeWidth=2;" vertex="1" parent="trQrFOLZtT0C0__hCQXX-1">
          <mxGeometry x="80" y="310" width="100" height="40" as="geometry" />
        </mxCell>
        <mxCell id="trQrFOLZtT0C0__hCQXX-7" value="true" style="edgeStyle=orthogonalEdgeStyle;rounded=0;orthogonalLoop=1;jettySize=auto;html=1;" edge="1" parent="trQrFOLZtT0C0__hCQXX-1" source="trQrFOLZtT0C0__hCQXX-5" target="trQrFOLZtT0C0__hCQXX-8">
          <mxGeometry relative="1" as="geometry">
            <mxPoint x="130" y="310" as="targetPoint" />
          </mxGeometry>
        </mxCell>
        <mxCell id="trQrFOLZtT0C0__hCQXX-13" style="edgeStyle=orthogonalEdgeStyle;rounded=0;orthogonalLoop=1;jettySize=auto;html=1;entryX=0.5;entryY=1;entryDx=0;entryDy=0;entryPerimeter=0;" edge="1" parent="trQrFOLZtT0C0__hCQXX-1" source="trQrFOLZtT0C0__hCQXX-10" target="trQrFOLZtT0C0__hCQXX-12">
          <mxGeometry relative="1" as="geometry">
            <Array as="points">
              <mxPoint x="280" y="370" />
              <mxPoint x="130" y="370" />
            </Array>
          </mxGeometry>
        </mxCell>
        <mxCell id="trQrFOLZtT0C0__hCQXX-10" value="pi[pat[i] - &#39;A&#39;] = m - i - 1;" style="rounded=1;whiteSpace=wrap;html=1;absoluteArcSize=1;arcSize=14;strokeWidth=2;" vertex="1" parent="trQrFOLZtT0C0__hCQXX-1">
          <mxGeometry x="210" y="310" width="140" height="40" as="geometry" />
        </mxCell>
        <mxCell id="trQrFOLZtT0C0__hCQXX-9" value="false" style="edgeStyle=orthogonalEdgeStyle;rounded=0;orthogonalLoop=1;jettySize=auto;html=1;entryX=0.5;entryY=0;entryDx=0;entryDy=0;" edge="1" parent="trQrFOLZtT0C0__hCQXX-1" source="trQrFOLZtT0C0__hCQXX-5" target="trQrFOLZtT0C0__hCQXX-10">
          <mxGeometry relative="1" as="geometry">
            <mxPoint x="220" y="300" as="targetPoint" />
          </mxGeometry>
        </mxCell>
        <mxCell id="trQrFOLZtT0C0__hCQXX-12" value="" style="strokeWidth=2;html=1;shape=mxgraph.flowchart.loop_limit;whiteSpace=wrap;rotation=-180;" vertex="1" parent="trQrFOLZtT0C0__hCQXX-1">
          <mxGeometry x="80" y="400" width="100" height="40" as="geometry" />
        </mxCell>
        <mxCell id="trQrFOLZtT0C0__hCQXX-11" style="edgeStyle=orthogonalEdgeStyle;rounded=0;orthogonalLoop=1;jettySize=auto;html=1;" edge="1" parent="trQrFOLZtT0C0__hCQXX-1" source="trQrFOLZtT0C0__hCQXX-8" target="trQrFOLZtT0C0__hCQXX-12">
          <mxGeometry relative="1" as="geometry">
            <mxPoint x="190" y="400" as="targetPoint" />
          </mxGeometry>
        </mxCell>
        <mxCell id="trQrFOLZtT0C0__hCQXX-15" value="int n = (int)str.size();&#xa;	int jumpIndex = 0;&#xa;	int i = m - 1;" style="rounded=1;whiteSpace=wrap;html=1;absoluteArcSize=1;arcSize=14;strokeWidth=2;" vertex="1" parent="trQrFOLZtT0C0__hCQXX-1">
          <mxGeometry x="65" y="470" width="130" height="70" as="geometry" />
        </mxCell>
        <mxCell id="trQrFOLZtT0C0__hCQXX-14" style="edgeStyle=orthogonalEdgeStyle;rounded=0;orthogonalLoop=1;jettySize=auto;html=1;" edge="1" parent="trQrFOLZtT0C0__hCQXX-1" source="trQrFOLZtT0C0__hCQXX-12" target="trQrFOLZtT0C0__hCQXX-15">
          <mxGeometry relative="1" as="geometry">
            <mxPoint x="140" y="510" as="targetPoint" />
          </mxGeometry>
        </mxCell>
        <mxCell id="trQrFOLZtT0C0__hCQXX-16" value="&lt;span style=&quot;color: rgb(0, 0, 0); font-family: Helvetica; font-size: 12px; font-style: normal; font-variant-ligatures: normal; font-variant-caps: normal; font-weight: 400; letter-spacing: normal; orphans: 2; text-align: center; text-indent: 0px; text-transform: none; widows: 2; word-spacing: 0px; -webkit-text-stroke-width: 0px; background-color: rgb(248, 249, 250); text-decoration-thickness: initial; text-decoration-style: initial; text-decoration-color: initial; float: none; display: inline !important;&quot;&gt;i &amp;lt; m&lt;/span&gt;" style="text;html=1;strokeColor=none;fillColor=none;align=center;verticalAlign=middle;whiteSpace=wrap;rounded=0;" vertex="1" parent="trQrFOLZtT0C0__hCQXX-1">
          <mxGeometry x="100" y="405" width="60" height="30" as="geometry" />
        </mxCell>
        <mxCell id="trQrFOLZtT0C0__hCQXX-18" value="i &lt; n" style="strokeWidth=2;html=1;shape=mxgraph.flowchart.loop_limit;whiteSpace=wrap;" vertex="1" parent="trQrFOLZtT0C0__hCQXX-1">
          <mxGeometry x="80" y="560" width="100" height="40" as="geometry" />
        </mxCell>
        <mxCell id="trQrFOLZtT0C0__hCQXX-17" style="edgeStyle=orthogonalEdgeStyle;rounded=0;orthogonalLoop=1;jettySize=auto;html=1;" edge="1" parent="trQrFOLZtT0C0__hCQXX-1" source="trQrFOLZtT0C0__hCQXX-15" target="trQrFOLZtT0C0__hCQXX-18">
          <mxGeometry relative="1" as="geometry">
            <mxPoint x="130" y="570" as="targetPoint" />
          </mxGeometry>
        </mxCell>
        <mxCell id="trQrFOLZtT0C0__hCQXX-20" value="j &lt; m &amp;&amp; str[(i - j)] == pat[m - 1 - j]" style="strokeWidth=2;html=1;shape=mxgraph.flowchart.loop_limit;whiteSpace=wrap;" vertex="1" parent="trQrFOLZtT0C0__hCQXX-1">
          <mxGeometry x="35" y="630" width="190" height="50" as="geometry" />
        </mxCell>
        <mxCell id="trQrFOLZtT0C0__hCQXX-19" style="edgeStyle=orthogonalEdgeStyle;rounded=0;orthogonalLoop=1;jettySize=auto;html=1;" edge="1" parent="trQrFOLZtT0C0__hCQXX-1" source="trQrFOLZtT0C0__hCQXX-18" target="trQrFOLZtT0C0__hCQXX-20">
          <mxGeometry relative="1" as="geometry">
            <mxPoint x="130" y="640" as="targetPoint" />
          </mxGeometry>
        </mxCell>
        <mxCell id="trQrFOLZtT0C0__hCQXX-24" style="edgeStyle=orthogonalEdgeStyle;rounded=0;orthogonalLoop=1;jettySize=auto;html=1;entryX=0.5;entryY=1;entryDx=0;entryDy=0;entryPerimeter=0;" edge="1" parent="trQrFOLZtT0C0__hCQXX-1" source="trQrFOLZtT0C0__hCQXX-22" target="trQrFOLZtT0C0__hCQXX-23">
          <mxGeometry relative="1" as="geometry">
            <mxPoint x="170" y="760" as="targetPoint" />
          </mxGeometry>
        </mxCell>
        <mxCell id="trQrFOLZtT0C0__hCQXX-22" value="count++;&lt;br&gt;j++;" style="rounded=1;whiteSpace=wrap;html=1;absoluteArcSize=1;arcSize=14;strokeWidth=2;" vertex="1" parent="trQrFOLZtT0C0__hCQXX-1">
          <mxGeometry x="80" y="700" width="100" height="30" as="geometry" />
        </mxCell>
        <mxCell id="trQrFOLZtT0C0__hCQXX-21" style="edgeStyle=orthogonalEdgeStyle;rounded=0;orthogonalLoop=1;jettySize=auto;html=1;" edge="1" parent="trQrFOLZtT0C0__hCQXX-1" source="trQrFOLZtT0C0__hCQXX-20" target="trQrFOLZtT0C0__hCQXX-22">
          <mxGeometry relative="1" as="geometry">
            <mxPoint x="130" y="710" as="targetPoint" />
          </mxGeometry>
        </mxCell>
        <mxCell id="trQrFOLZtT0C0__hCQXX-26" style="edgeStyle=orthogonalEdgeStyle;rounded=0;orthogonalLoop=1;jettySize=auto;html=1;entryX=0.5;entryY=0;entryDx=0;entryDy=0;entryPerimeter=0;" edge="1" parent="trQrFOLZtT0C0__hCQXX-1" source="trQrFOLZtT0C0__hCQXX-23" target="trQrFOLZtT0C0__hCQXX-25">
          <mxGeometry relative="1" as="geometry" />
        </mxCell>
        <mxCell id="trQrFOLZtT0C0__hCQXX-23" value="" style="strokeWidth=2;html=1;shape=mxgraph.flowchart.loop_limit;whiteSpace=wrap;rotation=-180;" vertex="1" parent="trQrFOLZtT0C0__hCQXX-1">
          <mxGeometry x="80" y="760" width="100" height="30" as="geometry" />
        </mxCell>
        <mxCell id="trQrFOLZtT0C0__hCQXX-25" value="j == m" style="strokeWidth=2;html=1;shape=mxgraph.flowchart.decision;whiteSpace=wrap;" vertex="1" parent="trQrFOLZtT0C0__hCQXX-1">
          <mxGeometry x="80" y="810" width="100" height="50" as="geometry" />
        </mxCell>
        <mxCell id="trQrFOLZtT0C0__hCQXX-28" value="return count;" style="rounded=1;whiteSpace=wrap;html=1;absoluteArcSize=1;arcSize=14;strokeWidth=2;" vertex="1" parent="trQrFOLZtT0C0__hCQXX-1">
          <mxGeometry x="80" y="890" width="100" height="50" as="geometry" />
        </mxCell>
        <mxCell id="trQrFOLZtT0C0__hCQXX-27" value="true" style="edgeStyle=orthogonalEdgeStyle;rounded=0;orthogonalLoop=1;jettySize=auto;html=1;" edge="1" parent="trQrFOLZtT0C0__hCQXX-1" source="trQrFOLZtT0C0__hCQXX-25" target="trQrFOLZtT0C0__hCQXX-28">
          <mxGeometry relative="1" as="geometry">
            <mxPoint x="130" y="900" as="targetPoint" />
          </mxGeometry>
        </mxCell>
        <mxCell id="trQrFOLZtT0C0__hCQXX-33" style="edgeStyle=orthogonalEdgeStyle;rounded=0;orthogonalLoop=1;jettySize=auto;html=1;entryX=0.5;entryY=0;entryDx=0;entryDy=0;entryPerimeter=0;" edge="1" parent="trQrFOLZtT0C0__hCQXX-1" source="trQrFOLZtT0C0__hCQXX-31" target="trQrFOLZtT0C0__hCQXX-32">
          <mxGeometry relative="1" as="geometry" />
        </mxCell>
        <mxCell id="trQrFOLZtT0C0__hCQXX-31" value="count++;" style="rounded=1;whiteSpace=wrap;html=1;absoluteArcSize=1;arcSize=14;strokeWidth=2;" vertex="1" parent="trQrFOLZtT0C0__hCQXX-1">
          <mxGeometry x="80" y="1030" width="100" height="40" as="geometry" />
        </mxCell>
        <mxCell id="trQrFOLZtT0C0__hCQXX-30" value="false" style="edgeStyle=orthogonalEdgeStyle;rounded=0;orthogonalLoop=1;jettySize=auto;html=1;" edge="1" parent="trQrFOLZtT0C0__hCQXX-1" source="trQrFOLZtT0C0__hCQXX-25" target="trQrFOLZtT0C0__hCQXX-31">
          <mxGeometry relative="1" as="geometry">
            <mxPoint x="220" y="950" as="targetPoint" />
            <Array as="points">
              <mxPoint x="210" y="835" />
              <mxPoint x="210" y="990" />
              <mxPoint x="130" y="990" />
            </Array>
          </mxGeometry>
        </mxCell>
        <mxCell id="trQrFOLZtT0C0__hCQXX-29" style="edgeStyle=orthogonalEdgeStyle;rounded=0;orthogonalLoop=1;jettySize=auto;html=1;entryX=0.5;entryY=0;entryDx=0;entryDy=0;" edge="1" parent="trQrFOLZtT0C0__hCQXX-1" source="trQrFOLZtT0C0__hCQXX-28" target="trQrFOLZtT0C0__hCQXX-31">
          <mxGeometry relative="1" as="geometry">
            <mxPoint x="130" y="980" as="targetPoint" />
          </mxGeometry>
        </mxCell>
        <mxCell id="trQrFOLZtT0C0__hCQXX-32" value="pi[str[i] - &#39;A&#39;] == 0 || pi[str[i] - &#39;A&#39;] == m" style="strokeWidth=2;html=1;shape=mxgraph.flowchart.decision;whiteSpace=wrap;" vertex="1" parent="trQrFOLZtT0C0__hCQXX-1">
          <mxGeometry x="80" y="1090" width="100" height="100" as="geometry" />
        </mxCell>
        <mxCell id="trQrFOLZtT0C0__hCQXX-35" value="jumpIndex = m - j;" style="rounded=1;whiteSpace=wrap;html=1;absoluteArcSize=1;arcSize=14;strokeWidth=2;" vertex="1" parent="trQrFOLZtT0C0__hCQXX-1">
          <mxGeometry x="80" y="1230" width="100" height="30" as="geometry" />
        </mxCell>
        <mxCell id="trQrFOLZtT0C0__hCQXX-34" value="true" style="edgeStyle=orthogonalEdgeStyle;rounded=0;orthogonalLoop=1;jettySize=auto;html=1;" edge="1" parent="trQrFOLZtT0C0__hCQXX-1" source="trQrFOLZtT0C0__hCQXX-32" target="trQrFOLZtT0C0__hCQXX-35">
          <mxGeometry relative="1" as="geometry">
            <mxPoint x="130" y="1230" as="targetPoint" />
          </mxGeometry>
        </mxCell>
        <mxCell id="trQrFOLZtT0C0__hCQXX-40" style="edgeStyle=orthogonalEdgeStyle;rounded=0;orthogonalLoop=1;jettySize=auto;html=1;entryX=0.5;entryY=0;entryDx=0;entryDy=0;" edge="1" parent="trQrFOLZtT0C0__hCQXX-1" source="trQrFOLZtT0C0__hCQXX-37" target="trQrFOLZtT0C0__hCQXX-39">
          <mxGeometry relative="1" as="geometry">
            <Array as="points">
              <mxPoint x="280" y="1280" />
              <mxPoint x="130" y="1280" />
            </Array>
          </mxGeometry>
        </mxCell>
        <mxCell id="trQrFOLZtT0C0__hCQXX-37" value="jumpIndex = pi[str[i] - &#39;A&#39;];" style="rounded=1;whiteSpace=wrap;html=1;absoluteArcSize=1;arcSize=14;strokeWidth=2;" vertex="1" parent="trQrFOLZtT0C0__hCQXX-1">
          <mxGeometry x="210" y="1230" width="140" height="30" as="geometry" />
        </mxCell>
        <mxCell id="trQrFOLZtT0C0__hCQXX-36" value="false" style="edgeStyle=orthogonalEdgeStyle;rounded=0;orthogonalLoop=1;jettySize=auto;html=1;" edge="1" parent="trQrFOLZtT0C0__hCQXX-1" source="trQrFOLZtT0C0__hCQXX-32" target="trQrFOLZtT0C0__hCQXX-37">
          <mxGeometry relative="1" as="geometry">
            <mxPoint x="260" y="1210" as="targetPoint" />
          </mxGeometry>
        </mxCell>
        <mxCell id="trQrFOLZtT0C0__hCQXX-39" value="i += jumpIndex;&#xa;		j = 0;" style="rounded=1;whiteSpace=wrap;html=1;absoluteArcSize=1;arcSize=14;strokeWidth=2;" vertex="1" parent="trQrFOLZtT0C0__hCQXX-1">
          <mxGeometry x="80" y="1310" width="100" height="60" as="geometry" />
        </mxCell>
        <mxCell id="trQrFOLZtT0C0__hCQXX-38" style="edgeStyle=orthogonalEdgeStyle;rounded=0;orthogonalLoop=1;jettySize=auto;html=1;" edge="1" parent="trQrFOLZtT0C0__hCQXX-1" source="trQrFOLZtT0C0__hCQXX-35" target="trQrFOLZtT0C0__hCQXX-39">
          <mxGeometry relative="1" as="geometry">
            <mxPoint x="200" y="1330" as="targetPoint" />
          </mxGeometry>
        </mxCell>
        <mxCell id="trQrFOLZtT0C0__hCQXX-42" value="" style="strokeWidth=2;html=1;shape=mxgraph.flowchart.loop_limit;whiteSpace=wrap;rotation=-180;" vertex="1" parent="trQrFOLZtT0C0__hCQXX-1">
          <mxGeometry x="80" y="1400" width="100" height="40" as="geometry" />
        </mxCell>
        <mxCell id="trQrFOLZtT0C0__hCQXX-41" style="edgeStyle=orthogonalEdgeStyle;rounded=0;orthogonalLoop=1;jettySize=auto;html=1;" edge="1" parent="trQrFOLZtT0C0__hCQXX-1" source="trQrFOLZtT0C0__hCQXX-39" target="trQrFOLZtT0C0__hCQXX-42">
          <mxGeometry relative="1" as="geometry">
            <mxPoint x="130" y="1400" as="targetPoint" />
          </mxGeometry>
        </mxCell>
        <mxCell id="trQrFOLZtT0C0__hCQXX-44" value="return -1;" style="rounded=1;whiteSpace=wrap;html=1;absoluteArcSize=1;arcSize=14;strokeWidth=2;" vertex="1" parent="trQrFOLZtT0C0__hCQXX-1">
          <mxGeometry x="80" y="1460" width="100" height="40" as="geometry" />
        </mxCell>
        <mxCell id="trQrFOLZtT0C0__hCQXX-43" style="edgeStyle=orthogonalEdgeStyle;rounded=0;orthogonalLoop=1;jettySize=auto;html=1;" edge="1" parent="trQrFOLZtT0C0__hCQXX-1" source="trQrFOLZtT0C0__hCQXX-42" target="trQrFOLZtT0C0__hCQXX-44">
          <mxGeometry relative="1" as="geometry">
            <mxPoint x="130" y="1470" as="targetPoint" />
          </mxGeometry>
        </mxCell>
      </root>
    </mxGraphModel>
  </diagram>
</mxfile>
